<svg xmlns="http://www.w3.org/2000/svg" width="1200" height="1200" viewBox="0 0 1200 1200">
  <rect width="1200" height="1200" rx="48" fill="#162133"/>
  <circle cx="1040" cy="170" r="145" fill="#54b7ff" opacity="0.17"/>
  <rect x="72" y="70" width="170" height="48" rx="24" fill="#4c9cff" opacity="0.22" stroke="#4c9cff"/>
  <text x="157" y="102" text-anchor="middle" fill="#f7fbff" font-family="Montserrat,Arial,sans-serif" font-size="24" font-weight="700">History</text>
  <text x="72" y="170" fill="#ffffff" font-family="Montserrat,Arial,sans-serif" font-size="58" font-weight="800">John von Neumann</text>
  <text x="72" y="225" fill="#9fd1ff" font-family="Montserrat,Arial,sans-serif" font-size="30" font-weight="600">Modern computer architecture</text>
  <circle cx="600" cy="560" r="210" fill="#efc5a2"/>
  <path d="M420 525c30-120 120-180 185-180 90 0 165 62 175 180v70H420z" fill="#26221f"/>
  <rect x="472" y="710" width="256" height="280" rx="125" fill="#111c2f"/>
  <circle cx="520" cy="560" r="18" fill="#20150f"/>
  <circle cx="675" cy="560" r="18" fill="#20150f"/>
  <path d="M547 643c34 20 70 20 104 0" stroke="#9c5547" stroke-width="10" fill="none" stroke-linecap="round"/>
  <rect x="385" y="760" width="430" height="330" rx="36" fill="#253753"/>
  <rect x="470" y="805" width="260" height="200" rx="22" fill="#132238" stroke="#4cb4ff" stroke-opacity="0.35"/>
  <rect x="525" y="840" width="150" height="26" rx="13" fill="#9fd1ff" opacity="0.9"/>
  <path d="M505 900h190" stroke="#9fd1ff" stroke-width="10" opacity="0.7"/>
  <path d="M505 948h190" stroke="#9fd1ff" stroke-width="10" opacity="0.7"/>
  <text x="72" y="1125" fill="#dcecff" font-family="Montserrat,Arial,sans-serif" font-size="26">John von Neumann helped define the stored-program architecture still used as a model for modern computers.</text>
</svg>
